<svg xmlns="http://www.w3.org/2000/svg" xmlns:xlink="http://www.w3.org/1999/xlink" width="1366" zoomAndPan="magnify" viewBox="0 0 1024.5 576" height="768" preserveAspectRatio="xMidYMid meet" version="1.0"><defs><clipPath id="0477dc87fb"><path d="M 0 0.140625 L 1024 0.140625 L 1024 575.859375 L 0 575.859375 Z M 0 0.140625 " clip-rule="nonzero"/></clipPath><clipPath id="f1f51665fd"><path d="M 662.894531 205.28125 L 1024 205.28125 L 1024 440.3125 L 662.894531 440.3125 Z M 662.894531 205.28125 " clip-rule="nonzero"/></clipPath><clipPath id="97d68865f9"><path d="M 1015.445312 205.28125 C 1080.347656 205.28125 1132.960938 257.894531 1132.960938 322.796875 C 1132.960938 387.699219 1080.347656 440.3125 1015.445312 440.3125 L 780.410156 440.3125 C 715.507812 440.3125 662.894531 387.699219 662.894531 322.796875 C 662.894531 257.894531 715.507812 205.28125 780.410156 205.28125 Z M 1015.445312 205.28125 " clip-rule="nonzero"/></clipPath></defs><g clip-path="url(#0477dc87fb)"><path fill="#ffffff" d="M 0 0.140625 L 1024 0.140625 L 1024 575.859375 L 0 575.859375 Z M 0 0.140625 " fill-opacity="1" fill-rule="nonzero"/><path fill="#ffffff" d="M 0 0.140625 L 1024 0.140625 L 1024 575.859375 L 0 575.859375 Z M 0 0.140625 " fill-opacity="1" fill-rule="nonzero"/></g><g clip-path="url(#f1f51665fd)"><g clip-path="url(#97d68865f9)"><path fill="#5265e1" d="M 662.894531 205.28125 L 1132.960938 205.28125 L 1132.960938 440.3125 L 662.894531 440.3125 Z M 662.894531 205.28125 " fill-opacity="1" fill-rule="nonzero"/></g></g></svg>